<svg xmlns="http://www.w3.org/2000/svg" xmlns:xlink="http://www.w3.org/1999/xlink" width="500" zoomAndPan="magnify" viewBox="0 0 375 374.999991" height="500" preserveAspectRatio="xMidYMid meet" version="1.0"><defs><g/><clipPath id="5fda2e89c5"><path d="M 165 107 L 280.855469 107 L 280.855469 274.394531 L 165 274.394531 Z M 165 107 " clip-rule="nonzero"/></clipPath><clipPath id="c700b2023d"><path d="M 94.105469 71.144531 L 210 71.144531 L 210 239 L 94.105469 239 Z M 94.105469 71.144531 " clip-rule="nonzero"/></clipPath><clipPath id="20d33df67f"><path d="M 187.5 143.035156 L 281 143.035156 L 281 232 L 187.5 232 Z M 187.5 143.035156 " clip-rule="nonzero"/></clipPath></defs><rect x="-37.5" width="450" fill="#ffffff" y="-37.499999" height="449.999989" fill-opacity="1"/><rect x="-37.5" width="450" fill="#000000" y="-37.499999" height="449.999989" fill-opacity="1"/><g clip-path="url(#5fda2e89c5)"><path fill="#ff3131" d="M 280.789062 273.652344 C 275.417969 265.09375 270.042969 256.535156 264.660156 247.976562 L 256.585938 235.164062 L 248.480469 222.351562 L 232.242188 196.746094 L 217.011719 172.757812 L 236.625 143.957031 L 241.785156 136.386719 C 243.515625 133.867188 245.230469 131.335938 246.96875 128.824219 L 257.398438 113.753906 L 261.617188 107.660156 L 205.992188 107.285156 L 204.816406 109.382812 C 203.105469 112.449219 201.429688 115.539062 199.738281 118.617188 L 198.472656 120.933594 L 197.222656 123.257812 L 194.714844 127.894531 L 189.757812 137.203125 L 187.230469 142.003906 C 186.265625 140.539062 185.300781 139.078125 184.335938 137.621094 L 181.378906 133.195312 L 178.394531 128.789062 L 175.40625 124.390625 L 172.378906 120.011719 C 170.347656 117.089844 168.292969 114.191406 166.203125 111.316406 C 166.140625 111.210938 166.054688 111.144531 165.9375 111.117188 C 165.824219 111.085938 165.714844 111.101562 165.609375 111.160156 C 165.507812 111.222656 165.441406 111.308594 165.410156 111.425781 C 165.382812 111.539062 165.394531 111.648438 165.457031 111.753906 C 166.972656 114.964844 168.53125 118.15625 170.128906 121.328125 L 172.523438 126.085938 L 174.949219 130.828125 L 177.394531 135.554688 L 179.863281 140.265625 C 181.523438 143.398438 183.183594 146.53125 184.867188 149.652344 L 187.296875 154.15625 L 190.191406 149.617188 C 192.078125 146.648438 193.921875 143.664062 195.789062 140.6875 L 201.339844 131.726562 L 204.089844 127.226562 L 205.464844 124.988281 L 206.828125 122.746094 C 208.203125 120.464844 209.585938 118.1875 210.953125 115.902344 C 212.042969 115.902344 245.300781 115.777344 246.621094 115.75 L 240.90625 124.828125 C 239.28125 127.414062 237.628906 129.980469 235.988281 132.558594 L 231.054688 140.28125 L 211.289062 171.152344 L 210.257812 172.757812 L 211.289062 174.25 L 228.425781 199.265625 L 245.597656 224.253906 L 254.1875 236.742188 L 262.800781 249.214844 C 268.542969 257.542969 274.300781 265.851562 280.082031 274.140625 C 280.148438 274.234375 280.238281 274.292969 280.351562 274.316406 C 280.464844 274.339844 280.570312 274.320312 280.667969 274.253906 C 280.765625 274.191406 280.824219 274.101562 280.847656 273.988281 C 280.871094 273.871094 280.851562 273.765625 280.789062 273.667969 Z M 280.789062 273.652344 " fill-opacity="1" fill-rule="nonzero"/></g><g clip-path="url(#c700b2023d)"><path fill="#ff3131" d="M 204.902344 224.078125 L 202.511719 219.316406 L 200.085938 214.578125 L 197.636719 209.851562 L 195.171875 205.140625 C 193.507812 202.003906 191.855469 198.867188 190.167969 195.75 L 187.738281 191.246094 L 184.84375 195.789062 C 182.953125 198.753906 181.109375 201.738281 179.242188 204.71875 L 173.691406 213.679688 L 170.945312 218.179688 L 169.566406 220.417969 L 168.207031 222.660156 C 166.832031 224.941406 165.460938 227.222656 164.101562 229.5 C 163.011719 229.5 129.753906 229.632812 128.425781 229.660156 L 134.128906 220.582031 C 135.757812 217.996094 137.410156 215.425781 139.050781 212.851562 L 143.984375 205.125 L 163.75 174.253906 L 164.777344 172.648438 L 163.75 171.15625 L 146.613281 146.191406 L 129.4375 121.257812 L 120.851562 108.796875 L 112.226562 96.347656 C 106.492188 88.042969 100.734375 79.757812 94.953125 71.484375 C 94.890625 71.390625 94.800781 71.332031 94.691406 71.308594 C 94.578125 71.285156 94.476562 71.304688 94.378906 71.363281 C 94.28125 71.425781 94.21875 71.515625 94.191406 71.628906 C 94.164062 71.742188 94.183594 71.851562 94.242188 71.949219 C 99.621094 80.496094 104.996094 89.039062 110.371094 97.574219 L 118.449219 110.378906 L 126.554688 123.160156 L 142.785156 148.722656 L 158.023438 172.652344 L 138.421875 201.453125 L 133.257812 209.023438 C 131.53125 211.539062 129.820312 214.070312 128.078125 216.585938 L 117.644531 231.65625 L 113.429688 237.75 L 169.058594 238.121094 L 170.234375 236.007812 C 171.949219 232.941406 173.628906 229.851562 175.316406 226.773438 L 176.582031 224.457031 L 177.835938 222.140625 L 180.34375 217.503906 L 185.277344 208.207031 L 187.804688 203.410156 L 190.699219 207.785156 L 193.65625 212.207031 L 196.640625 216.621094 L 199.628906 221.019531 L 202.65625 225.398438 C 204.683594 228.316406 206.742188 231.214844 208.832031 234.089844 C 208.894531 234.179688 208.984375 234.234375 209.089844 234.253906 C 209.195312 234.277344 209.296875 234.257812 209.390625 234.203125 C 209.484375 234.148438 209.546875 234.066406 209.582031 233.960938 C 209.613281 233.859375 209.605469 233.757812 209.558594 233.65625 C 208.054688 230.453125 206.503906 227.261719 204.902344 224.078125 Z M 204.902344 224.078125 " fill-opacity="1" fill-rule="nonzero"/></g><g clip-path="url(#20d33df67f)"><path fill="#737373" d="M 279.277344 172.753906 C 274.222656 154.148438 258.941406 143.042969 238.386719 143.042969 L 187.5 143.042969 L 188.503906 145.34375 C 192.816406 155.226562 202.574219 161.617188 213.363281 161.621094 L 227.21875 161.621094 L 227.335938 161.617188 C 227.859375 161.582031 229.804688 161.464844 232.726562 161.464844 C 235.53125 161.464844 238.394531 161.574219 241.214844 161.789062 L 241.492188 161.8125 C 252.304688 162.660156 267.117188 165.488281 276.269531 174.105469 L 276.386719 174.214844 C 276.4375 174.261719 276.484375 174.304688 276.53125 174.351562 L 280.886719 178.691406 Z M 280.671875 194.199219 L 280.660156 194.375 C 277.910156 217.558594 261.539062 231.957031 237.933594 231.957031 L 205.46875 231.957031 L 205.46875 188.070312 L 207.113281 188.070312 C 216.617188 188.070312 224.351562 195.800781 224.351562 205.304688 L 224.351562 213.074219 L 238.726562 213.074219 C 245.808594 213.074219 251.773438 210.75 255.976562 206.351562 C 260.253906 201.871094 262.511719 195.398438 262.511719 187.632812 L 262.511719 187.367188 C 262.511719 181.351562 261.191406 176.167969 258.582031 171.953125 L 256.144531 168.019531 L 260.515625 169.535156 C 265.941406 171.417969 270.339844 173.921875 273.59375 176.988281 C 278.34375 181.464844 280.726562 187.253906 280.671875 194.199219 " fill-opacity="1" fill-rule="nonzero"/></g><g fill="#a6a6a6" fill-opacity="1"><g transform="translate(150.069869, 258.35285)"><g><path d="M 7.21875 -5.4375 C 6.789062 -5.101562 6.394531 -4.644531 6.03125 -4.0625 C 5.675781 -3.476562 5.304688 -2.910156 4.921875 -2.359375 C 4.546875 -1.816406 4.144531 -1.34375 3.71875 -0.9375 C 3.300781 -0.539062 2.847656 -0.34375 2.359375 -0.34375 C 1.867188 -0.34375 1.523438 -0.410156 1.328125 -0.546875 C 1.140625 -0.679688 1.046875 -0.859375 1.046875 -1.078125 C 1.046875 -1.296875 1.050781 -1.46875 1.0625 -1.59375 L 5.65625 -7.046875 C 4.820312 -8.078125 4.117188 -8.953125 3.546875 -9.671875 C 2.972656 -10.398438 2.5 -11 2.125 -11.46875 C 1.757812 -11.9375 1.472656 -12.300781 1.265625 -12.5625 C 1.066406 -12.832031 0.921875 -13.023438 0.828125 -13.140625 C 0.742188 -13.265625 0.6875 -13.363281 0.65625 -13.4375 C 0.65625 -13.757812 0.875 -13.984375 1.3125 -14.109375 C 1.675781 -14.222656 2 -14.207031 2.28125 -14.0625 L 6.921875 -8.453125 L 12.703125 -15.265625 L 14.109375 -14.140625 L 8.296875 -7.234375 C 8.847656 -6.492188 9.472656 -5.859375 10.171875 -5.328125 C 10.878906 -4.804688 11.535156 -4.316406 12.140625 -3.859375 C 12.753906 -3.398438 13.265625 -2.9375 13.671875 -2.46875 C 14.085938 -2 14.296875 -1.453125 14.296875 -0.828125 C 14.253906 -0.453125 14.085938 -0.203125 13.796875 -0.078125 C 13.734375 -0.046875 13.617188 -0.03125 13.453125 -0.03125 C 13.296875 -0.03125 13.054688 -0.148438 12.734375 -0.390625 Z M 7.21875 -5.4375 "/></g></g></g><g fill="#a6a6a6" fill-opacity="1"><g transform="translate(164.93128, 258.35285)"><g><path d="M 4.3125 -2.328125 L 4.359375 -6.203125 C 4.359375 -6.804688 4.300781 -7.328125 4.1875 -7.765625 L 0.4375 -7.765625 L 0.390625 -9.4375 L 4.015625 -9.4375 L 4.015625 -15.6875 C 4.066406 -15.832031 4.164062 -15.976562 4.3125 -16.125 C 4.53125 -16.34375 4.71875 -16.453125 4.875 -16.453125 C 5.03125 -16.453125 5.160156 -16.4375 5.265625 -16.40625 C 5.378906 -16.375 5.503906 -16.257812 5.640625 -16.0625 C 5.898438 -15 6.03125 -13.394531 6.03125 -11.25 C 6.03125 -10.71875 6.050781 -10.195312 6.09375 -9.6875 C 6.613281 -9.75 7.128906 -9.78125 7.640625 -9.78125 C 7.640625 -9.78125 8.0625 -9.78125 8.90625 -9.78125 C 9.207031 -9.78125 9.488281 -9.796875 9.75 -9.828125 L 9.6875 -8.078125 L 6.140625 -8.1875 L 6.265625 0.171875 C 5.972656 0.296875 5.722656 0.359375 5.515625 0.359375 C 4.710938 0.359375 4.3125 -0.535156 4.3125 -2.328125 Z M 4.3125 -2.328125 "/></g></g></g><g fill="#a6a6a6" fill-opacity="1"><g transform="translate(174.95184, 258.35285)"><g><path d="M 12.53125 -8.828125 C 11.851562 -9.316406 10.984375 -9.5625 9.921875 -9.5625 C 8.921875 -9.5625 7.992188 -9.375 7.140625 -9 C 5.523438 -8.320312 4.421875 -7.453125 3.828125 -6.390625 C 3.566406 -5.898438 3.4375 -5.382812 3.4375 -4.84375 C 3.4375 -4.738281 3.4375 -4.460938 3.4375 -4.015625 C 3.4375 -3.578125 3.515625 -2.984375 3.671875 -2.234375 C 3.835938 -1.484375 3.921875 -0.722656 3.921875 0.046875 C 3.578125 0.0664062 3.300781 0.109375 3.09375 0.171875 C 2.882812 0.234375 2.707031 0.265625 2.5625 0.265625 C 2.414062 0.265625 2.289062 0.195312 2.1875 0.0625 C 2.082031 -0.0625 1.96875 -0.304688 1.84375 -0.671875 C 1.820312 -0.773438 1.785156 -1.050781 1.734375 -1.5 C 1.691406 -1.945312 1.632812 -2.492188 1.5625 -3.140625 C 1.488281 -3.785156 1.40625 -4.488281 1.3125 -5.25 C 1.226562 -6.019531 1.144531 -6.78125 1.0625 -7.53125 C 0.882812 -9.144531 0.75 -10.328125 0.65625 -11.078125 C 0.65625 -11.472656 0.9375 -11.671875 1.5 -11.671875 C 1.84375 -11.671875 2.109375 -11.523438 2.296875 -11.234375 C 2.492188 -10.953125 2.644531 -10.628906 2.75 -10.265625 C 2.863281 -9.910156 2.941406 -9.550781 2.984375 -9.1875 C 3.023438 -8.832031 3.0625 -8.585938 3.09375 -8.453125 C 5.226562 -10.347656 7.875 -11.296875 11.03125 -11.296875 C 11.382812 -11.296875 11.757812 -11.289062 12.15625 -11.28125 C 12.25 -11.289062 12.367188 -11.296875 12.515625 -11.296875 C 12.660156 -11.296875 12.804688 -11.203125 12.953125 -11.015625 C 13.128906 -10.785156 13.21875 -10.507812 13.21875 -10.1875 C 13.21875 -9.382812 12.988281 -8.929688 12.53125 -8.828125 Z M 12.53125 -8.828125 "/></g></g></g><g fill="#a6a6a6" fill-opacity="1"><g transform="translate(188.627243, 258.35285)"><g><path d="M 10.171875 -4.015625 C 8.953125 -2.109375 7.335938 -0.929688 5.328125 -0.484375 C 4.859375 -0.390625 4.429688 -0.34375 4.046875 -0.34375 C 3.671875 -0.34375 3.359375 -0.34375 3.109375 -0.34375 C 2.859375 -0.351562 2.578125 -0.390625 2.265625 -0.453125 C 1.960938 -0.523438 1.679688 -0.632812 1.421875 -0.78125 C 0.828125 -1.113281 0.53125 -1.585938 0.53125 -2.203125 C 0.46875 -2.492188 0.4375 -2.820312 0.4375 -3.1875 C 0.4375 -3.550781 0.515625 -4.03125 0.671875 -4.625 C 0.835938 -5.21875 1.132812 -5.859375 1.5625 -6.546875 C 1.988281 -7.242188 2.507812 -7.882812 3.125 -8.46875 C 4.394531 -9.695312 5.773438 -10.488281 7.265625 -10.84375 C 7.691406 -10.9375 8.085938 -10.984375 8.453125 -10.984375 C 8.816406 -10.984375 9.144531 -10.960938 9.4375 -10.921875 C 10.375 -10.921875 11.003906 -10.28125 11.328125 -9 C 11.535156 -8.195312 11.660156 -7.070312 11.703125 -5.625 C 11.742188 -4.175781 11.78125 -3.0625 11.8125 -2.28125 C 11.851562 -1.5 11.957031 -0.785156 12.125 -0.140625 L 10.703125 -0.140625 C 10.628906 -0.578125 10.578125 -0.960938 10.546875 -1.296875 C 10.515625 -1.640625 10.484375 -1.957031 10.453125 -2.25 C 10.367188 -2.925781 10.273438 -3.515625 10.171875 -4.015625 Z M 10.0625 -7.765625 C 10.0625 -8.703125 9.601562 -9.171875 8.6875 -9.171875 C 8.570312 -9.191406 8.457031 -9.203125 8.34375 -9.203125 C 7.164062 -9.203125 5.925781 -8.632812 4.625 -7.5 C 4.007812 -6.988281 3.484375 -6.410156 3.046875 -5.765625 C 2.398438 -4.835938 2.078125 -4.015625 2.078125 -3.296875 C 2.078125 -2.335938 2.628906 -1.769531 3.734375 -1.59375 C 5.179688 -1.625 6.566406 -2.285156 7.890625 -3.578125 C 8.453125 -4.140625 8.921875 -4.753906 9.296875 -5.421875 C 9.804688 -6.304688 10.0625 -7.085938 10.0625 -7.765625 Z M 10.0625 -7.765625 "/></g></g></g><g fill="#a6a6a6" fill-opacity="1"><g transform="translate(201.237659, 258.35285)"><g><path d="M 2.546875 -14.859375 C 3.734375 -15.273438 5.3125 -15.484375 7.28125 -15.484375 C 10.882812 -15.484375 13.347656 -14.597656 14.671875 -12.828125 C 15.179688 -12.148438 15.4375 -11.285156 15.4375 -10.234375 C 15.457031 -10.085938 15.46875 -9.941406 15.46875 -9.796875 C 15.46875 -8.179688 14.519531 -6.546875 12.625 -4.890625 C 10.90625 -3.328125 8.78125 -2.066406 6.25 -1.109375 C 4.570312 -0.460938 3.179688 -0.140625 2.078125 -0.140625 C 1.628906 -0.140625 1.242188 -0.207031 0.921875 -0.34375 L 0.921875 -15.4375 L 1.265625 -15.4375 C 1.628906 -15.4375 1.925781 -15.375 2.15625 -15.25 C 2.382812 -15.132812 2.515625 -15.003906 2.546875 -14.859375 Z M 13.8125 -10.046875 C 13.664062 -11.484375 12.867188 -12.546875 11.421875 -13.234375 C 10.335938 -13.753906 8.984375 -14.015625 7.359375 -14.015625 L 6.921875 -13.984375 C 5.390625 -13.953125 4.066406 -13.710938 2.953125 -13.265625 L 2.953125 -1.71875 C 4.078125 -1.71875 5.488281 -2.128906 7.1875 -2.953125 C 10.125 -4.398438 12.140625 -6.085938 13.234375 -8.015625 C 13.617188 -8.691406 13.8125 -9.367188 13.8125 -10.046875 Z M 13.8125 -10.046875 "/></g></g></g><g fill="#a6a6a6" fill-opacity="1"><g transform="translate(217.309282, 258.35285)"><g><path d="M 12.53125 -8.828125 C 11.851562 -9.316406 10.984375 -9.5625 9.921875 -9.5625 C 8.921875 -9.5625 7.992188 -9.375 7.140625 -9 C 5.523438 -8.320312 4.421875 -7.453125 3.828125 -6.390625 C 3.566406 -5.898438 3.4375 -5.382812 3.4375 -4.84375 C 3.4375 -4.738281 3.4375 -4.460938 3.4375 -4.015625 C 3.4375 -3.578125 3.515625 -2.984375 3.671875 -2.234375 C 3.835938 -1.484375 3.921875 -0.722656 3.921875 0.046875 C 3.578125 0.0664062 3.300781 0.109375 3.09375 0.171875 C 2.882812 0.234375 2.707031 0.265625 2.5625 0.265625 C 2.414062 0.265625 2.289062 0.195312 2.1875 0.0625 C 2.082031 -0.0625 1.96875 -0.304688 1.84375 -0.671875 C 1.820312 -0.773438 1.785156 -1.050781 1.734375 -1.5 C 1.691406 -1.945312 1.632812 -2.492188 1.5625 -3.140625 C 1.488281 -3.785156 1.40625 -4.488281 1.3125 -5.25 C 1.226562 -6.019531 1.144531 -6.78125 1.0625 -7.53125 C 0.882812 -9.144531 0.75 -10.328125 0.65625 -11.078125 C 0.65625 -11.472656 0.9375 -11.671875 1.5 -11.671875 C 1.84375 -11.671875 2.109375 -11.523438 2.296875 -11.234375 C 2.492188 -10.953125 2.644531 -10.628906 2.75 -10.265625 C 2.863281 -9.910156 2.941406 -9.550781 2.984375 -9.1875 C 3.023438 -8.832031 3.0625 -8.585938 3.09375 -8.453125 C 5.226562 -10.347656 7.875 -11.296875 11.03125 -11.296875 C 11.382812 -11.296875 11.757812 -11.289062 12.15625 -11.28125 C 12.25 -11.289062 12.367188 -11.296875 12.515625 -11.296875 C 12.660156 -11.296875 12.804688 -11.203125 12.953125 -11.015625 C 13.128906 -10.785156 13.21875 -10.507812 13.21875 -10.1875 C 13.21875 -9.382812 12.988281 -8.929688 12.53125 -8.828125 Z M 12.53125 -8.828125 "/></g></g></g><g fill="#a6a6a6" fill-opacity="1"><g transform="translate(230.984685, 258.35285)"><g><path d="M 2.828125 -11.375 C 3.035156 -8.351562 3.210938 -4.859375 3.359375 -0.890625 C 3.265625 -0.390625 2.878906 -0.140625 2.203125 -0.140625 C 2.023438 -0.140625 1.84375 -0.175781 1.65625 -0.25 C 1.46875 -0.320312 1.351562 -0.425781 1.3125 -0.5625 L 1.3125 -11.375 Z M 0.578125 -14.671875 C 0.578125 -15.234375 0.910156 -15.515625 1.578125 -15.515625 C 2.003906 -15.515625 2.359375 -15.414062 2.640625 -15.21875 C 2.679688 -15.039062 2.703125 -14.867188 2.703125 -14.703125 C 2.703125 -14.535156 2.640625 -14.367188 2.515625 -14.203125 C 2.390625 -14.046875 2.195312 -13.96875 1.9375 -13.96875 C 1.675781 -13.96875 1.414062 -14.023438 1.15625 -14.140625 C 0.90625 -14.265625 0.710938 -14.441406 0.578125 -14.671875 Z M 0.578125 -14.671875 "/></g></g></g><g fill="#a6a6a6" fill-opacity="1"><g transform="translate(234.736344, 258.35285)"><g><path d="M 1.09375 -9.390625 C 1.0625 -10.265625 1.023438 -11.039062 0.984375 -11.71875 C 0.953125 -12.40625 0.929688 -12.914062 0.921875 -13.25 C 0.921875 -13.582031 0.789062 -14.394531 0.53125 -15.6875 C 0.675781 -15.875 0.816406 -16.054688 0.953125 -16.234375 C 1.085938 -16.410156 1.285156 -16.5 1.546875 -16.5 C 2.109375 -16.5 2.546875 -14.117188 2.859375 -9.359375 C 3.015625 -6.609375 3.09375 -3.851562 3.09375 -1.09375 C 3.09375 -0.34375 2.578125 0.03125 1.546875 0.03125 L 1.359375 0 C 1.359375 -0.84375 1.332031 -1.914062 1.28125 -3.21875 C 1.226562 -4.519531 1.191406 -5.65625 1.171875 -6.625 C 1.148438 -7.59375 1.125 -8.515625 1.09375 -9.390625 Z M 1.09375 -9.390625 "/></g></g></g><g fill="#a6a6a6" fill-opacity="1"><g transform="translate(238.633228, 258.35285)"><g><path d="M 1.09375 -9.390625 C 1.0625 -10.265625 1.023438 -11.039062 0.984375 -11.71875 C 0.953125 -12.40625 0.929688 -12.914062 0.921875 -13.25 C 0.921875 -13.582031 0.789062 -14.394531 0.53125 -15.6875 C 0.675781 -15.875 0.816406 -16.054688 0.953125 -16.234375 C 1.085938 -16.410156 1.285156 -16.5 1.546875 -16.5 C 2.109375 -16.5 2.546875 -14.117188 2.859375 -9.359375 C 3.015625 -6.609375 3.09375 -3.851562 3.09375 -1.09375 C 3.09375 -0.34375 2.578125 0.03125 1.546875 0.03125 L 1.359375 0 C 1.359375 -0.84375 1.332031 -1.914062 1.28125 -3.21875 C 1.226562 -4.519531 1.191406 -5.65625 1.171875 -6.625 C 1.148438 -7.59375 1.125 -8.515625 1.09375 -9.390625 Z M 1.09375 -9.390625 "/></g></g></g></svg>